<svg data-v-d3f97b9e="" xmlns="http://www.w3.org/2000/svg" viewBox="0 0 88.57457058173465 60"><!----><!----><!----><!----><g data-v-d3f97b9e="" id="cc74fe26-7de1-40df-b11b-49f7cdc15d86" transform="matrix(0.8857457058173465,0,0,0.8857457058173465,0.6237736546544497,-18.411109619410645)" stroke="none" fill="white"><path d="M98.686 41.55c-.609-.7-3.235-2.146-3.771-3.831-1.465-5.305-7.68-7.251-7.68-7.251l.667-9.682c-2.757.841-6.581 4.013-10.58 8.03a14.814 14.814 0 0 0-1.91-.139c-4.592 0-8.683 2.139-11.346 5.463-5.792-4.752-12.1-8.063-22.343-7.699-21.684.777-33.571 15.426-37.471 35.689-4.987 3.972-5.215 8.396-4.833 10.836 1.16 7.44 9.97 12.845 15.854 14.304 17.662 4.384 35.815-2.925 46.243-18.61a4.575 4.575 0 0 0-7.618-5.066C45.636 76.021 31.34 81.831 17.475 78.39c-3.853-.957-8.261-4.222-8.943-6.537l1.159.293h31.521c4.022-2.448 7.594-5.837 10.406-10.067 2.232-3.363 6.787-4.275 10.146-2.043 3.358 2.234 4.277 6.785 2.043 10.146a56.57 56.57 0 0 1-1.384 1.964h19.023c-.074-.154.082-.065.082-.065-.158-.237-1.931-2.989-2.128-6.117-.375-5.922 3.597-10.823 3.597-10.823l.041-.059c12.408 2.168 15.094-5.622 15.781-9.412.319-1.752.955-3.386-.133-4.12zm-10.438-1.361a1.714 1.714 0 1 1 .003-3.427 1.714 1.714 0 0 1-.003 3.427z"></path></g><!----></svg>