<svg data-v-d3f97b9e="" xmlns="http://www.w3.org/2000/svg" viewBox="0 0 287 90"><!----><!----><!----><g data-v-d3f97b9e="" id="07bd4fdd-5851-4e70-94b3-12673ba6c1f5" fill="white" transform="matrix(4.240282514041758,0,0,4.240282514041758,152.86186082515334,5.628975959050933)"><path d="M4.96 5.49L8.11 5.49L8.11 6.23L8.11 6.23Q7.90 6.23 7.73 6.28L7.73 6.28L7.73 6.28Q7.57 6.33 7.44 6.45L7.44 6.45L7.44 6.45Q7.31 6.57 7.21 6.76L7.21 6.76L7.21 6.76Q7.10 6.96 6.99 7.25L6.99 7.25L6.99 7.25Q6.74 7.95 6.47 8.67L6.47 8.67L6.47 8.67Q6.21 9.40 5.94 10.13L5.94 10.13L5.94 10.13Q5.67 10.86 5.40 11.58L5.40 11.58L5.40 11.58Q5.13 12.30 4.87 13.00L4.87 13.00L4.87 13.00Q4.63 13.67 4.41 14.18L4.41 14.18L4.41 14.18Q4.19 14.70 3.95 15.07L3.95 15.07L3.95 15.07Q3.71 15.45 3.41 15.70L3.41 15.70L3.41 15.70Q3.12 15.94 2.73 16.09L2.73 16.09L2.73 16.09Q2.34 16.24 1.82 16.30L1.82 16.30L1.82 16.30Q1.31 16.36 0.62 16.36L0.62 16.36L0.38 16.36L0.38 15.54L0.38 15.54Q1.11 15.54 1.62 15.37L1.62 15.37L1.62 15.37Q2.13 15.19 2.49 14.86L2.49 14.86L2.49 14.86Q2.84 14.53 3.07 14.08L3.07 14.08L3.07 14.08Q3.30 13.62 3.47 13.06L3.47 13.06L0.95 6.90L0.95 6.90Q0.87 6.71 0.77 6.59L0.77 6.59L0.77 6.59Q0.66 6.47 0.55 6.41L0.55 6.41L0.55 6.41Q0.43 6.35 0.29 6.33L0.29 6.33L0.29 6.33Q0.16 6.32 0 6.32L0 6.32L0 5.49L3.99 5.49L3.99 6.23L3.99 6.23Q3.58 6.23 3.35 6.34L3.35 6.34L3.35 6.34Q3.11 6.45 3.11 6.75L3.11 6.75L3.11 6.75Q3.11 6.87 3.16 7.03L3.16 7.03L3.16 7.03Q3.21 7.19 3.25 7.29L3.25 7.29L3.25 7.29Q3.37 7.59 3.50 7.93L3.50 7.93L3.50 7.93Q3.64 8.28 3.76 8.62L3.76 8.62L3.76 8.62Q3.89 8.97 4.01 9.29L4.01 9.29L4.01 9.29Q4.12 9.61 4.21 9.86L4.21 9.86L4.21 9.86Q4.31 10.12 4.38 10.34L4.38 10.34L4.38 10.34Q4.45 10.55 4.49 10.73L4.49 10.73L4.49 10.73Q4.54 10.90 4.57 11.05L4.57 11.05L4.57 11.05Q4.59 11.20 4.61 11.34L4.61 11.34L4.61 11.34Q4.62 11.20 4.66 11.02L4.66 11.02L4.66 11.02Q4.70 10.85 4.75 10.69L4.75 10.69L4.75 10.69Q4.80 10.53 4.85 10.40L4.85 10.40L4.85 10.40Q4.89 10.27 4.92 10.22L4.92 10.22L5.84 7.48L5.84 7.48Q5.87 7.41 5.89 7.32L5.89 7.32L5.89 7.32Q5.91 7.23 5.93 7.13L5.93 7.13L5.93 7.13Q5.95 7.03 5.96 6.95L5.96 6.95L5.96 6.95Q5.97 6.86 5.97 6.79L5.97 6.79L5.97 6.79Q5.97 6.47 5.71 6.35L5.71 6.35L5.71 6.35Q5.44 6.23 4.96 6.23L4.96 6.23L4.96 5.49ZM9.31 3.22L9.31 3.22L9.31 3.22Q9.31 2.95 9.40 2.76L9.40 2.76L9.40 2.76Q9.50 2.57 9.66 2.45L9.66 2.45L9.66 2.45Q9.82 2.33 10.03 2.27L10.03 2.27L10.03 2.27Q10.25 2.21 10.50 2.21L10.50 2.21L10.50 2.21Q10.74 2.21 10.96 2.27L10.96 2.27L10.96 2.27Q11.18 2.33 11.34 2.45L11.34 2.45L11.34 2.45Q11.50 2.57 11.60 2.76L11.60 2.76L11.60 2.76Q11.70 2.95 11.70 3.22L11.70 3.22L11.70 3.22Q11.70 3.48 11.60 3.67L11.60 3.67L11.60 3.67Q11.50 3.86 11.34 3.99L11.34 3.99L11.34 3.99Q11.18 4.11 10.96 4.17L10.96 4.17L10.96 4.17Q10.74 4.23 10.50 4.23L10.50 4.23L10.50 4.23Q10.25 4.23 10.03 4.17L10.03 4.17L10.03 4.17Q9.82 4.11 9.66 3.99L9.66 3.99L9.66 3.99Q9.50 3.86 9.40 3.67L9.40 3.67L9.40 3.67Q9.31 3.48 9.31 3.22ZM8.35 12.25L8.51 12.25L8.51 12.25Q8.67 12.25 8.84 12.22L8.84 12.22L8.84 12.22Q9.02 12.19 9.16 12.09L9.16 12.09L9.16 12.09Q9.31 12.00 9.41 11.82L9.41 11.82L9.41 11.82Q9.51 11.64 9.51 11.34L9.51 11.34L9.51 7.09L9.51 7.09Q9.51 6.81 9.41 6.64L9.41 6.64L9.41 6.64Q9.31 6.47 9.16 6.38L9.16 6.38L9.16 6.38Q9.01 6.29 8.84 6.26L8.84 6.26L8.84 6.26Q8.66 6.23 8.51 6.23L8.51 6.23L8.35 6.23L8.35 5.49L11.63 5.49L11.63 11.34L11.63 11.34Q11.63 11.64 11.73 11.82L11.73 11.82L11.73 11.82Q11.83 12.00 11.98 12.09L11.98 12.09L11.98 12.09Q12.13 12.19 12.30 12.22L12.30 12.22L12.30 12.22Q12.48 12.25 12.63 12.25L12.63 12.25L12.80 12.25L12.80 13.00L8.35 13.00L8.35 12.25ZM22.01 13.00L18.90 13.00L18.90 8.39L18.90 8.39Q18.90 7.94 18.84 7.58L18.84 7.58L18.84 7.58Q18.79 7.23 18.65 6.99L18.65 6.99L18.65 6.99Q18.52 6.75 18.30 6.63L18.30 6.63L18.30 6.63Q18.09 6.50 17.78 6.50L17.78 6.50L17.78 6.50Q17.43 6.50 17.20 6.68L17.20 6.68L17.20 6.68Q16.97 6.86 16.83 7.15L16.83 7.15L16.83 7.15Q16.69 7.45 16.63 7.84L16.63 7.84L16.63 7.84Q16.56 8.24 16.56 8.67L16.56 8.67L16.56 11.34L16.56 11.34Q16.56 11.63 16.64 11.81L16.64 11.81L16.64 11.81Q16.71 11.99 16.84 12.09L16.84 12.09L16.84 12.09Q16.97 12.19 17.15 12.22L17.15 12.22L17.15 12.22Q17.34 12.25 17.58 12.25L17.58 12.25L17.62 12.25L17.62 13.00L13.32 13.00L13.32 12.25L13.34 12.25L13.34 12.25Q13.58 12.25 13.78 12.22L13.78 12.22L13.78 12.22Q13.98 12.19 14.13 12.09L14.13 12.09L14.13 12.09Q14.27 11.98 14.36 11.79L14.36 11.79L14.36 11.79Q14.44 11.60 14.44 11.29L14.44 11.29L14.44 7.10L14.44 7.10Q14.44 6.81 14.37 6.63L14.37 6.63L14.37 6.63Q14.29 6.45 14.16 6.35L14.16 6.35L14.16 6.35Q14.03 6.25 13.84 6.22L13.84 6.22L13.84 6.22Q13.66 6.19 13.43 6.19L13.43 6.19L13.38 6.19L13.38 5.49L16.32 5.49L16.51 6.49L16.58 6.49L16.58 6.49Q16.79 6.09 17.02 5.86L17.02 5.86L17.02 5.86Q17.26 5.63 17.53 5.50L17.53 5.50L17.53 5.50Q17.79 5.38 18.09 5.35L18.09 5.35L18.09 5.35Q18.39 5.31 18.72 5.31L18.72 5.31L18.72 5.31Q19.49 5.31 20.04 5.59L20.04 5.59L20.04 5.59Q20.58 5.87 20.84 6.49L20.84 6.49L20.96 6.49L20.96 6.49Q21.17 6.09 21.42 5.86L21.42 5.86L21.42 5.86Q21.67 5.63 21.95 5.50L21.95 5.50L21.95 5.50Q22.24 5.38 22.55 5.35L22.55 5.35L22.55 5.35Q22.86 5.31 23.19 5.31L23.19 5.31L23.19 5.31Q23.73 5.31 24.16 5.47L24.16 5.47L24.16 5.47Q24.59 5.63 24.89 5.95L24.89 5.95L24.89 5.95Q25.18 6.28 25.34 6.79L25.34 6.79L25.34 6.79Q25.50 7.30 25.50 8.01L25.50 8.01L25.50 11.26L25.50 11.26Q25.50 11.59 25.56 11.78L25.56 11.78L25.56 11.78Q25.61 11.98 25.73 12.08L25.73 12.08L25.73 12.08Q25.85 12.18 26.02 12.22L26.02 12.22L26.02 12.22Q26.20 12.25 26.43 12.25L26.43 12.25L26.48 12.25L26.48 13.00L23.37 13.00L23.37 8.39L23.37 8.39Q23.37 7.49 23.12 6.99L23.12 6.99L23.12 6.99Q22.87 6.50 22.25 6.50L22.25 6.50L22.25 6.50Q21.92 6.50 21.69 6.66L21.69 6.66L21.69 6.66Q21.46 6.82 21.31 7.10L21.31 7.10L21.31 7.10Q21.16 7.37 21.10 7.73L21.10 7.73L21.10 7.73Q21.03 8.10 21.03 8.50L21.03 8.50L21.03 11.26L21.03 11.26Q21.03 11.59 21.09 11.78L21.09 11.78L21.09 11.78Q21.14 11.98 21.26 12.08L21.26 12.08L21.26 12.08Q21.38 12.18 21.55 12.22L21.55 12.22L21.55 12.22Q21.73 12.25 21.97 12.25L21.97 12.25L22.01 12.25L22.01 13.00ZM28.04 3.22L28.04 3.22L28.04 3.22Q28.04 2.95 28.13 2.76L28.13 2.76L28.13 2.76Q28.23 2.57 28.39 2.45L28.39 2.45L28.39 2.45Q28.55 2.33 28.76 2.27L28.76 2.27L28.76 2.27Q28.98 2.21 29.23 2.21L29.23 2.21L29.23 2.21Q29.47 2.21 29.69 2.27L29.69 2.27L29.69 2.27Q29.91 2.33 30.07 2.45L30.07 2.45L30.07 2.45Q30.24 2.57 30.33 2.76L30.33 2.76L30.33 2.76Q30.43 2.95 30.43 3.22L30.43 3.22L30.43 3.22Q30.43 3.48 30.33 3.67L30.33 3.67L30.33 3.67Q30.24 3.86 30.07 3.99L30.07 3.99L30.07 3.99Q29.91 4.11 29.69 4.17L29.69 4.17L29.69 4.17Q29.47 4.23 29.23 4.23L29.23 4.23L29.23 4.23Q28.98 4.23 28.76 4.17L28.76 4.17L28.76 4.17Q28.55 4.11 28.39 3.99L28.39 3.99L28.39 3.99Q28.23 3.86 28.13 3.67L28.13 3.67L28.13 3.67Q28.04 3.48 28.04 3.22ZM27.08 12.25L27.24 12.25L27.24 12.25Q27.40 12.25 27.57 12.22L27.57 12.22L27.57 12.22Q27.75 12.19 27.89 12.09L27.89 12.09L27.89 12.09Q28.04 12.00 28.14 11.82L28.14 11.82L28.14 11.82Q28.24 11.64 28.24 11.34L28.24 11.34L28.24 7.09L28.24 7.09Q28.24 6.81 28.14 6.64L28.14 6.64L28.14 6.64Q28.04 6.47 27.89 6.38L27.89 6.38L27.89 6.38Q27.74 6.29 27.57 6.26L27.57 6.26L27.57 6.26Q27.39 6.23 27.24 6.23L27.24 6.23L27.08 6.23L27.08 5.49L30.37 5.49L30.37 11.34L30.37 11.34Q30.37 11.64 30.46 11.82L30.46 11.82L30.46 11.82Q30.56 12.00 30.71 12.09L30.71 12.09L30.71 12.09Q30.86 12.19 31.04 12.22L31.04 12.22L31.04 12.22Q31.21 12.25 31.36 12.25L31.36 12.25L31.53 12.25L31.53 13.00L27.08 13.00L27.08 12.25Z"></path></g><!----><g data-v-d3f97b9e="" id="4e6848c5-d51a-4c3a-a5f4-e9956067447f" transform="matrix(1.3286185587260197,0,0,1.3286185587260197,1.8004969363731504,-26.830665131020268)" stroke="none" fill="white"><path d="M98.686 41.55c-.609-.7-3.235-2.146-3.771-3.831-1.465-5.305-7.68-7.251-7.68-7.251l.667-9.682c-2.757.841-6.581 4.013-10.58 8.03a14.814 14.814 0 0 0-1.91-.139c-4.592 0-8.683 2.139-11.346 5.463-5.792-4.752-12.1-8.063-22.343-7.699-21.684.777-33.571 15.426-37.471 35.689-4.987 3.972-5.215 8.396-4.833 10.836 1.16 7.44 9.97 12.845 15.854 14.304 17.662 4.384 35.815-2.925 46.243-18.61a4.575 4.575 0 0 0-7.618-5.066C45.636 76.021 31.34 81.831 17.475 78.39c-3.853-.957-8.261-4.222-8.943-6.537l1.159.293h31.521c4.022-2.448 7.594-5.837 10.406-10.067 2.232-3.363 6.787-4.275 10.146-2.043 3.358 2.234 4.277 6.785 2.043 10.146a56.57 56.57 0 0 1-1.384 1.964h19.023c-.074-.154.082-.065.082-.065-.158-.237-1.931-2.989-2.128-6.117-.375-5.922 3.597-10.823 3.597-10.823l.041-.059c12.408 2.168 15.094-5.622 15.781-9.412.319-1.752.955-3.386-.133-4.12zm-10.438-1.361a1.714 1.714 0 1 1 .003-3.427 1.714 1.714 0 0 1-.003 3.427z"></path></g><!----></svg>