<svg data-v-d3f97b9e="" xmlns="http://www.w3.org/2000/svg" viewBox="0 0 257.14285714285717 60"><!----><!----><!----><g data-v-d3f97b9e="" id="c0c60998-79dd-4747-a746-e1146833ac8b" fill="black" transform="matrix(4.8979591836734695,0,0,4.8979591836734695,-8.571430751255576,0)"><path d="M8.75 12.25L5.25 12.25L5.25 7L3.50 7L3.50 5.25L1.75 5.25L1.75 0L5.25 0L5.25 5.25L8.75 5.25L8.75 0L12.25 0L12.25 5.25L10.50 5.25L10.50 7L8.75 7L8.75 12.25ZM22.75 1.75L19.25 1.75L19.25 0L22.75 0L22.75 1.75ZM26.25 12.25L15.75 12.25L15.75 10.50L19.25 10.50L19.25 5.25L17.50 5.25L17.50 3.50L22.75 3.50L22.75 10.50L26.25 10.50L26.25 12.25ZM29.75 12.25L28 12.25L28 3.50L38.50 3.50L38.50 5.25L40.25 5.25L40.25 12.25L36.75 12.25L36.75 5.25L35 5.25L35 12.25L31.50 12.25L31.50 5.25L29.75 5.25L29.75 12.25ZM50.75 1.75L47.25 1.75L47.25 0L50.75 0L50.75 1.75ZM54.25 12.25L43.75 12.25L43.75 10.50L47.25 10.50L47.25 5.25L45.50 5.25L45.50 3.50L50.75 3.50L50.75 10.50L54.25 10.50L54.25 12.25Z"></path></g><!----><!----></svg>